<svg height="128" viewBox="0 0 33.866664 33.866668" width="127.99999" xmlns="http://www.w3.org/2000/svg"><g transform="matrix(3.160697 0 0 3.160697 .046501 3.648442)"><path d="m8.2873784-.00579419-.3255994.00204c-1.8075885.0083612-2.758778-.03337882-3.9348733.57845204-.8459254.44006915-.8579431 1.27449535-1.9652936 2.07867195-.3986428.2811153-.6441938.6438864-1.55674291.7456471v1.5438838c.0939059.017377.19306443.03505.29100446.052911.10758632.019617.21264925.039005.29507445.058337.082425.019331.1483626.043121.1539814.046127.2618016.1400892-.1984985.080677-.1339374.2213587.287263 2.6551136 1.6727472 3.1594337 5.4588421 3.1426124.1657415-.00154.3314829-.00316.4972241-.00475v-1.3437761h-.4999354c-4.1259052-.1442851-3.6901603-.9930949-4.0604897-2.1312594h5.9671979v-1.5056206h-5.0188957c1.0649811-.8229521.8288179-1.2800568 1.4713076-1.6314316.9006274-.4925492 1.3643525-.4948967 3.0382493-.5026441h.4972174v-1.35055919z" fill="#170b28"/><path d="m8.1361103.31980522-.1743313.002035c-1.7692769.00819-2.6380562-.0547658-3.7632554.52690417-.8418419.43518881-.8460085 1.26796051-1.949692 2.06917491-.4553769.3211235-.7652483.707692-1.74396241.8134804v.8770832c.12221715.023901.2558532.04804.38597107.073938.22799584.045377.45420534.107904.49721734.1309187.3057949.1636297.1272384.2499306.140124.4877489-.0740763 2.3716129 1.4810916 2.9113511 5.0314814 2.8375573h.1743296v-.6973257h-.1743313c-4.8716682-.2008094-3.9425656-1.637896-4.4661384-2.7824582h6.0547088v-.8544218h-5.8702024c.1608688-.0824747.3661345-.1397955.502644-.2360595 1.3785358-.8048942 1.1445226-1.5623249 1.9739517-1.9950177.9626666-.5021996 1.49875-.5462777 3.2098673-.5541973h.171618z" fill="#fff"/><g transform="matrix(1.2884286 0 0 1.2884286 .014713 -1.245679)"><path d="m1.2183305 3.0061665c-.66965323 0-1.21824756.5533144-1.21824756 1.2237474s.54859433 1.2237474 1.21824756 1.2237474c.6696531 0 1.2154973-.5533144 1.2154973-1.2237474s-.5458442-1.2237474-1.2154973-1.2237474zm0 .6984984c.2901875 0 .5197488.2286884.5197488.525249 0 .2965605-.2295613.5279989-.5197488.5279989-.29018763 0-.522499-.2314384-.522499-.5279989 0-.2965606.23231137-.525249.522499-.525249z" fill="#170b28" stroke-width=".592733"/><path d="m2.168013 4.2305242a.95055915.95764289 0 0 1 -.950559.9576428.95055915.95764289 0 0 1 -.95055921-.9576428.95055915.95764289 0 0 1 .95055921-.9576429.95055915.95764289 0 0 1 .950559.9576429z" fill="#fff"/></g></g><g fill-rule="evenodd" stroke-width="1.7145"><path d="m28.630859.04296875c-2.490286.16294188-4.664447 1.58838965-5.388672 3.89843755-.965624 3.0800663 1.006741 6.4344497 4.3125 7.7929687l.484375.199219.398438-.339844c2.796072-2.3955955 3.952047-6.0262955 3.365234-10.5644531l-.072265-.56250002-.546875-.15234375c-.858552-.24022837-1.722639-.32579834-2.552735-.27148438zm.126953 1.69921875c.436019-.024474.907131.073329 1.373047.15625.322742 3.5242325-.517923 6.0883867-2.414062 7.9511719-2.259332-1.1828111-3.444253-3.4623627-2.837891-5.3964844.489714-1.5620332 2.007167-2.6058776 3.878906-2.7109375z" fill="#170b28"/><path d="m27.880313 10.942058c-2.960433-1.2166058-4.629273-4.1630567-3.819987-6.7444486.809293-2.5813899 3.820627-3.91709505 6.892963-3.0574359.562142 4.3473689-.504961 7.6016816-3.072976 9.8018845z" fill="#b380ff" stroke-width="1.7145"/><path d="m22.373047 10.847656-.326172.384766c-1.450391 1.716873-2.470724 3.50992-2.919922 5.236328s-.306118 3.45186.693359 4.765625c1.06219 1.3962 2.997412 1.741586 4.753907 1.384766 1.756494-.356821 3.504311-1.549347 3.945312-3.582032.813476-3.749514-1.726664-7.31803-5.652344-8.091796zm.648437 1.96875c2.77995.791542 4.39945 3.197036 3.822266 5.857422-.272318 1.255181-1.342394 2.007849-2.611328 2.265625s-2.567792-.11184-3.048828-.744141c-.615356-.808855-.759161-1.906606-.398438-3.292968.324106-1.245629 1.127698-2.672962 2.236328-4.085938z" fill="#170b28"/><path d="m22.701581 11.785853c3.517561.693325 5.693068 3.781904 4.979748 7.069775-.71332 3.287869-5.63591 3.88738-7.179137 1.858878-1.614835-2.122623-.574533-5.645061 2.199399-8.928651z" fill="#d5f" stroke-width="1.7145"/><path d="m20.324219 22.728516c-1.026189.03553-2.044941.208977-2.900391.566406-.427725.178714-.818474.404341-1.144531.724609-.326057.320269-.587408.768321-.625 1.279297-.176757 2.402582-.328807 4.888864 1.451172 7.412109.754821 1.070013 2.089325 1.242738 3.328125 1.181641 1.2388-.0611 2.533155-.36268 3.222656-1.449219 1.298051-2.045514 1.721123-4.932102 1.451172-7.4375-.05497-.510185-.335101-.954346-.677735-1.257812-.342633-.303466-.747617-.502254-1.183593-.652344-.871952-.30018-1.895687-.402721-2.921875-.367187zm.06055 1.71289c.8603-.02979 1.727635.07673 2.304687.275391.288526.09933.49856.221495.603516.314453.104956.09296.105364.12098.109375.158203.231824 2.151542-.216909 4.797212-1.19336 6.335938-.114446.180348-.951632.609527-1.859375.654296-.907742.04477-1.733658-.300968-1.84375-.457031-1.460012-2.06967-1.317007-3.899383-1.140625-6.296875.0028-.03812.0076-.07791.115235-.183594.107593-.105682.317984-.245116.605468-.365234.574969-.240236 1.438528-.405757 2.298829-.435547z" fill="#170b28"/><path d="m22.932951 31.98449c-.803948 1.266889-4.262606 1.458216-5.12752.232139-1.619997-2.29646-1.472018-4.454331-1.295448-6.85437.161587-2.196374 7.508792-2.454301 7.744721-.264665.250888 2.328472-.184501 5.094774-1.321753 6.886896z" fill="#ff2ad4" stroke-width="1.7145"/><path d="m31.867187 2.7246094-4.068359.4824219h-.002c-2.049409.2531428-3.334748 1.623786-3.425781 3.0839843-.04552.7300992.211065 1.4764127.751953 2.0175782.540888.5411654 1.344949.8509306 2.269531.8457031h.05664l3.496093-.4863281.01172-.00195c.717954-.1191618 1.196472-.5673531 1.617235-1.0683626.420763-.5010094.765204-1.1009871.992187-1.7226562.226984-.6216691.370529-1.2665949.164063-1.9472656-.103233-.3403354-.331895-.6917767-.671875-.9140625-.339981-.2222858-.745999-.302973-1.154297-.2890625zm.109375 1.7128906c.09165.0000988.106589.00841.109375.00977.01926.082466.01783.4326102-.130859.8398438-.152508.4176925-.417614.8786968-.693359 1.2070312-.274745.3271434-.576247.4765045-.583985.4785156-.000028.0000074-.0019.00195-.002.00195l-3.3105.4589831c-.537753-.0023291-.847647-.1561479-1.029297-.3378906-.184756-.1848511-.269283-.4192825-.251953-.6972656.034661-.5559662.485858-1.3128576 1.921875-1.4902344z" fill="#1b0f2b"/><path d="m27.901472 4.0578274 4.031717-.4771299c2.249164-.076628.330129 3.9990477-1.116899 4.2392261l-3.429078.4771298c-2.959683.016734-2.971169-3.808706.51426-4.239226z" fill="#fff" stroke-width="1.7145"/><path d="m19.548828 13.189453c-.506909.195006-.940879.553457-1.222656.970703-.563554.834493-.758268 1.980288-.166016 2.949219.338981.554575.862926.966982 1.572266 1.462891.70934.495908 1.588627 1.002716 2.541015 1.419921 1.904777.834411 4.177727 1.431368 5.91211.265625.679519-.45673 1.398421-1.203913 1.714844-2.216796.158211-.506442.189503-1.125667-.08789-1.69336-.277394-.567693-.821181-1.000136-1.53125-1.277343l-.1875-.07422-.203125.01758c-1.711188.157795-2.57911.184399-3.357422-.02344-.778312-.207837-1.612007-.695668-3.167969-1.71875l-.07422-.04883-.08008-.03125c-.574712-.229091-1.155199-.196958-1.662109-.002zm1.025391 1.59375c1.463918.959358 2.448003 1.580142 3.515625 1.865234 1.024226.273505 2.129694.199979 3.640625.06836.325582.149116.498412.297577.541015.384765.04827.09879.06131.214689-.0059.429688-.134331.429998-.696761 1.073973-1.037109 1.302734-.831357.558786-2.59214.321837-4.267579-.412109-.837719-.366973-1.633826-.827816-2.246093-1.255859-.612268-.428044-1.059084-.897653-1.091797-.951172-.151136-.24726-.113066-.74318.125-1.095703.237584-.35181.438371-.489642.826172-.335938z" fill="#170b28"/><path d="m20.893475 13.987404c3.131449 2.059002 3.623578 2.199213 7.07629 1.880826 2.298431.897298.757642 2.991669-.262227 3.677161-2.565742 1.72453-8.071614-1.666357-8.815002-2.882547s.462154-3.288824 2.000929-2.67544z" fill="#fff" stroke-width="1.7145"/><g transform="matrix(.99454298 .1043277 -.01688781 -.99985739 0 0)"><path d="m20.998047-28.654297.05469.002c-1.64396-.102432-3.003498.983887-3.230468 2.390625-.113485.70337.08366 1.482562.601562 2.09961.5179.617047 1.317168 1.070815 2.375 1.322265.691247.164313 1.464006.142773 2.125.111328.660995-.03144 1.193359-.09375 1.193359-.09375l-.179687.002c.808344.0734 1.573504-.284557 1.994141-.839844s.557737-1.223732.537109-1.876953c-.02063-.653222-.203936-1.311315-.570313-1.882813-.366376-.571498-.954918-1.06759-1.716796-1.21875l-.08203-.01563zm-.05273 1.71875.02539.002h.02734 2.86914c.226348.05164.415013.182833.582032.44336.172727.26943.287715.655922.298828 1.007812.01111.35189-.0849.647766-.1875.783203-.102596.135438-.151276.192892-.46875.164063l-.08984-.0078-.08984.01172s-.47264.05564-1.068359.08398-1.331714.0065-1.646484-.06836c-.795759-.189155-1.235438-.490264-1.455079-.751953-.21964-.261689-.258621-.485686-.220703-.720703.07584-.470034.571837-1.000352 1.423828-.947266z" fill="#170b28"/><path d="m20.998272-27.793949h3.016439c1.997711.396355 2.251637 4.32086 0 4.116395 0 0-2.01042.239135-3.016439 0-3.707186-.881212-2.495954-4.271914 0-4.116395z" fill="#fff" stroke-width="1.72084"/></g></g></svg>