<?xml version="1.0" encoding="UTF-8" standalone="no"?>
<!-- Created with Inkscape (http://www.inkscape.org/) -->

<svg
   width="127.99999"
   height="128"
   viewBox="0 0 33.866664 33.866668"
   version="1.1"
   id="svg291"
   inkscape:version="1.2.2 (1:1.2.2+202305151914+b0a8486541)"
   sodipodi:docname="design_version_of_icon.svg"
   inkscape:export-filename="resource_wrangler_icon.png"
   inkscape:export-xdpi="96.0084"
   inkscape:export-ydpi="96.0084"
   xmlns:inkscape="http://www.inkscape.org/namespaces/inkscape"
   xmlns:sodipodi="http://sodipodi.sourceforge.net/DTD/sodipodi-0.dtd"
   xmlns="http://www.w3.org/2000/svg"
   xmlns:svg="http://www.w3.org/2000/svg">
  <sodipodi:namedview
     id="namedview293"
     pagecolor="#ffffff"
     bordercolor="#666666"
     borderopacity="1.0"
     inkscape:pageshadow="2"
     inkscape:pageopacity="0.0"
     inkscape:pagecheckerboard="0"
     inkscape:document-units="px"
     showgrid="false"
     width="1920px"
     units="px"
     borderlayer="true"
     inkscape:showpageshadow="false"
     inkscape:zoom="2"
     inkscape:cx="140"
     inkscape:cy="92"
     inkscape:window-width="1920"
     inkscape:window-height="1016"
     inkscape:window-x="0"
     inkscape:window-y="27"
     inkscape:window-maximized="1"
     inkscape:current-layer="layer1"
     inkscape:deskcolor="#d1d1d1" />
  <defs
     id="defs288" />
  <g
     inkscape:label="Layer 1"
     inkscape:groupmode="layer"
     id="layer1">
    <g
       id="g120"
       transform="matrix(3.160697,0,0,3.160697,0.04650133,3.6484416)">
      <path
         id="path951"
         style="color:#000000;fill:#170b28;stroke:none;-inkscape-stroke:none;paint-order:stroke fill markers"
         d="m 8.2873784,-0.00579419 -0.3255994,0.00204 C 6.1541905,0.00460701 5.203001,-0.03713301 4.0269057,0.57469785 3.1809803,1.014767 3.1689626,1.8491932 2.0616121,2.6533698 1.6629693,2.9344851 1.4174183,3.2972562 0.50486919,3.3990169 v 1.5438838 c 0.0939059,0.017377 0.19306443,0.03505 0.29100446,0.052911 0.10758632,0.019617 0.21264925,0.039005 0.29507445,0.058337 0.082425,0.019331 0.1483626,0.043121 0.1539814,0.046127 0.2618016,0.1400892 -0.1984985,0.080677 -0.1339374,0.2213587 0.287263,2.6551136 1.6727472,3.1594337 5.4588421,3.1426124 0.1657415,-0.00154 0.3314829,-0.00316 0.4972241,-0.00475 V 7.1157207 H 6.5671229 C 2.4412177,6.9714356 2.8769626,6.1226258 2.5066332,4.9844613 H 8.4738311 V 3.4788407 H 3.4549354 C 4.5199165,2.6558886 4.2837533,2.1987839 4.926243,1.8474091 5.8268704,1.3548599 6.2905955,1.3525124 7.9644923,1.344765 h 0.4972174 v -1.35055919 z"
         sodipodi:nodetypes="ccaccccsccccccccccacccc" />
      <path
         id="path957"
         style="color:#000000;fill:#ffffff;stroke:none;-inkscape-stroke:none;paint-order:stroke fill markers"
         d="M 8.1361103,0.31980522 7.961779,0.32184022 C 6.1925021,0.33003022 5.3237228,0.26707442 4.1985236,0.84874439 3.3566817,1.2839332 3.3525151,2.1167049 2.2488316,2.9179193 1.7934547,3.2390428 1.4835833,3.6256113 0.50486919,3.7313997 v 0.8770832 c 0.12221715,0.023901 0.2558532,0.04804 0.38597107,0.073938 C 1.1188361,4.7277979 1.3450456,4.7903249 1.3880576,4.8133396 1.6938525,4.9769693 1.515296,5.0632702 1.5281816,5.3010885 1.4541053,7.6727014 3.0092732,8.2124396 6.559663,8.1386458 H 6.7339926 V 7.4413201 H 6.5596613 C 1.6879931,7.2405107 2.6170957,5.8034241 2.0935229,4.6588619 H 8.1482317 V 3.8044401 H 2.2780293 C 2.4388981,3.7219654 2.6441638,3.6646446 2.7806733,3.5683806 4.1592091,2.7634864 3.9251959,2.0060557 4.754625,1.5733629 5.7172916,1.0711633 6.253375,1.0270852 7.9644923,1.0191656 h 0.171618 z"
         sodipodi:nodetypes="ccacccscccccccccccaccc" />
      <g
         id="g966"
         transform="matrix(1.2884286,0,0,1.2884286,0.01471305,-1.2456788)">
        <path
           style="color:#000000;fill:#170b28;stroke-width:0.592733;stroke-dasharray:none;paint-order:stroke fill markers"
           d="m 1.2183305,3.0061665 c -0.66965323,0 -1.218247563262,0.5533144 -1.218247563262,1.2237474 0,0.670433 0.548594333262,1.2237474 1.218247563262,1.2237474 0.6696531,0 1.2154973,-0.5533144 1.2154973,-1.2237474 0,-0.670433 -0.5458442,-1.2237474 -1.2154973,-1.2237474 z m 0,0.6984984 c 0.2901875,0 0.5197488,0.2286884 0.5197488,0.525249 0,0.2965605 -0.2295613,0.5279989 -0.5197488,0.5279989 -0.29018763,0 -0.522499,-0.2314384 -0.522499,-0.5279989 0,-0.2965606 0.23231137,-0.525249 0.522499,-0.525249 z"
           id="path276" />
        <path
           style="color:#000000;fill:#ffffff;stroke:none;stroke-width:0.762383;-inkscape-stroke:none;paint-order:stroke fill markers"
           d="M 2.168013,4.2305242 A 0.95055915,0.95764289 0 0 1 1.217454,5.188167 0.95055915,0.95764289 0 0 1 0.26689479,4.2305242 0.95055915,0.95764289 0 0 1 1.217454,3.2728813 0.95055915,0.95764289 0 0 1 2.168013,4.2305242 Z"
           id="path278" />
      </g>
    </g>
    <g
       id="g2609"
       style="stroke-width:1.7145;stroke-dasharray:none">
      <g
         id="path228">
        <path
           style="color:#000000;fill:#170b28;fill-rule:evenodd;-inkscape-stroke:none;paint-order:stroke fill markers"
           d="m 28.630859,0.04296875 c -2.490286,0.16294188 -4.664447,1.58838965 -5.388672,3.89843755 -0.965624,3.0800663 1.006741,6.4344497 4.3125,7.7929687 L 28.039062,11.933594 28.4375,11.59375 C 31.233572,9.1981545 32.389547,5.5674545 31.802734,1.0292969 L 31.730469,0.46679688 31.183594,0.31445313 C 30.325042,0.07422476 29.460955,-0.01134521 28.630859,0.04296875 Z m 0.126953,1.69921875 c 0.436019,-0.024474 0.907131,0.073329 1.373047,0.15625 C 30.453601,5.42267 29.612936,7.9868242 27.716797,9.8496094 25.457465,8.6667983 24.272544,6.3872467 24.878906,4.453125 25.36862,2.8910918 26.886073,1.8472474 28.757812,1.7421875 Z"
           id="path303" />
        <path
           style="color:#000000;fill:#b380ff;fill-rule:evenodd;stroke-width:1.7145;-inkscape-stroke:none;paint-order:stroke fill markers"
           d="M 27.880313,10.942058 C 24.91988,9.7254522 23.25104,6.7790013 24.060326,4.1976094 24.869619,1.6162195 27.880953,0.28051435 30.953289,1.1401735 31.515431,5.4875424 30.448328,8.7418551 27.880313,10.942058 Z"
           id="path305" />
      </g>
      <g
         id="path379"
         inkscape:transform-center-x="-2.0146166"
         inkscape:transform-center-y="-4.910562">
        <path
           style="color:#000000;fill:#170b28;fill-rule:evenodd;-inkscape-stroke:none;paint-order:stroke fill markers"
           d="m 22.373047,10.847656 -0.326172,0.384766 c -1.450391,1.716873 -2.470724,3.50992 -2.919922,5.236328 -0.449198,1.726408 -0.306118,3.45186 0.693359,4.765625 1.06219,1.3962 2.997412,1.741586 4.753907,1.384766 1.756494,-0.356821 3.504311,-1.549347 3.945312,-3.582032 0.813476,-3.749514 -1.726664,-7.31803 -5.652344,-8.091796 z m 0.648437,1.96875 c 2.77995,0.791542 4.39945,3.197036 3.822266,5.857422 -0.272318,1.255181 -1.342394,2.007849 -2.611328,2.265625 -1.268934,0.257776 -2.567792,-0.11184 -3.048828,-0.744141 -0.615356,-0.808855 -0.759161,-1.906606 -0.398438,-3.292968 0.324106,-1.245629 1.127698,-2.672962 2.236328,-4.085938 z"
           id="path309" />
        <path
           style="color:#000000;fill:#dd55ff;fill-rule:evenodd;stroke-width:1.7145;-inkscape-stroke:none;paint-order:stroke fill markers"
           d="m 22.701581,11.785853 c 3.517561,0.693325 5.693068,3.781904 4.979748,7.069775 -0.71332,3.287869 -5.63591,3.88738 -7.179137,1.858878 -1.614835,-2.122623 -0.574533,-5.645061 2.199399,-8.928651 z"
           id="path311" />
      </g>
      <g
         id="path381">
        <path
           style="color:#000000;fill:#170b28;fill-rule:evenodd;-inkscape-stroke:none;paint-order:stroke fill markers"
           d="m 20.324219,22.728516 c -1.026189,0.03553 -2.044941,0.208977 -2.900391,0.566406 -0.427725,0.178714 -0.818474,0.404341 -1.144531,0.724609 -0.326057,0.320269 -0.587408,0.768321 -0.625,1.279297 -0.176757,2.402582 -0.328807,4.888864 1.451172,7.412109 0.754821,1.070013 2.089325,1.242738 3.328125,1.181641 1.2388,-0.0611 2.533155,-0.36268 3.222656,-1.449219 1.298051,-2.045514 1.721123,-4.932102 1.451172,-7.4375 -0.05497,-0.510185 -0.335101,-0.954346 -0.677735,-1.257812 -0.342633,-0.303466 -0.747617,-0.502254 -1.183593,-0.652344 -0.871952,-0.30018 -1.895687,-0.402721 -2.921875,-0.367187 z m 0.06055,1.71289 c 0.8603,-0.02979 1.727635,0.07673 2.304687,0.275391 0.288526,0.09933 0.49856,0.221495 0.603516,0.314453 0.104956,0.09296 0.105364,0.12098 0.109375,0.158203 0.231824,2.151542 -0.216909,4.797212 -1.19336,6.335938 -0.114446,0.180348 -0.951632,0.609527 -1.859375,0.654296 -0.907742,0.04477 -1.733658,-0.300968 -1.84375,-0.457031 -1.460012,-2.06967 -1.317007,-3.899383 -1.140625,-6.296875 0.0028,-0.03812 0.0076,-0.07791 0.115235,-0.183594 0.107593,-0.105682 0.317984,-0.245116 0.605468,-0.365234 0.574969,-0.240236 1.438528,-0.405757 2.298829,-0.435547 z"
           id="path315" />
        <path
           style="color:#000000;fill:#ff2ad4;fill-rule:evenodd;stroke-width:1.7145;-inkscape-stroke:none;paint-order:stroke fill markers"
           d="m 22.932951,31.98449 c -0.803948,1.266889 -4.262606,1.458216 -5.12752,0.232139 -1.619997,-2.29646 -1.472018,-4.454331 -1.295448,-6.85437 0.161587,-2.196374 7.508792,-2.454301 7.744721,-0.264665 0.250888,2.328472 -0.184501,5.094774 -1.321753,6.886896 z"
           id="path317" />
      </g>
      <g
         id="path2650">
        <path
           style="color:#000000;fill:#1b0f2b;fill-rule:evenodd;-inkscape-stroke:none;paint-order:stroke fill markers"
           d="m 31.867187,2.7246094 -4.068359,0.4824219 h -0.002 c -2.049409,0.2531428 -3.334748,1.623786 -3.425781,3.0839843 -0.04552,0.7300992 0.211065,1.4764127 0.751953,2.0175782 0.540888,0.5411654 1.344949,0.8509306 2.269531,0.8457031 h 0.05664 l 3.496093,-0.4863281 0.01172,-0.00195 C 31.674938,8.546857 32.153456,8.0986657 32.574219,7.5976562 32.994982,7.0966468 33.339423,6.4966691 33.566406,5.875 33.79339,5.2533309 33.936935,4.6084051 33.730469,3.9277344 33.627236,3.587399 33.398574,3.2359577 33.058594,3.0136719 32.718613,2.7913861 32.312595,2.7106989 31.904297,2.7246094 Z M 31.976562,4.4375 c 0.09165,9.88e-5 0.106589,0.00841 0.109375,0.00977 0.01926,0.082466 0.01783,0.4326102 -0.130859,0.8398438 -0.152508,0.4176925 -0.417614,0.8786968 -0.693359,1.2070312 -0.274745,0.3271434 -0.576247,0.4765045 -0.583985,0.4785156 -2.8e-5,7.4e-6 -0.0019,0.00195 -0.002,0.00195 l -3.3105,0.4589831 C 26.827481,7.4312646 26.517587,7.2774458 26.335937,7.0957031 26.151181,6.910852 26.066654,6.6764206 26.083984,6.3984375 26.118645,5.8424713 26.569842,5.0855799 28.005859,4.9082031 Z"
           id="path297" />
        <path
           style="color:#000000;fill:#ffffff;fill-rule:evenodd;stroke-width:1.7145;-inkscape-stroke:none;paint-order:stroke fill markers"
           d="m 27.901472,4.0578274 4.031717,-0.4771299 c 2.249164,-0.076628 0.330129,3.9990477 -1.116899,4.2392261 l -3.429078,0.4771298 c -2.959683,0.016734 -2.971169,-3.808706 0.51426,-4.239226 z"
           id="path299" />
      </g>
      <g
         id="rect1556"
         inkscape:transform-center-x="4.2439436"
         inkscape:transform-center-y="1.4276955">
        <path
           style="color:#000000;fill:#170b28;fill-rule:evenodd;-inkscape-stroke:none;paint-order:stroke fill markers"
           d="m 19.548828,13.189453 c -0.506909,0.195006 -0.940879,0.553457 -1.222656,0.970703 -0.563554,0.834493 -0.758268,1.980288 -0.166016,2.949219 0.338981,0.554575 0.862926,0.966982 1.572266,1.462891 0.70934,0.495908 1.588627,1.002716 2.541015,1.419921 1.904777,0.834411 4.177727,1.431368 5.91211,0.265625 0.679519,-0.45673 1.398421,-1.203913 1.714844,-2.216796 0.158211,-0.506442 0.189503,-1.125667 -0.08789,-1.69336 -0.277394,-0.567693 -0.821181,-1.000136 -1.53125,-1.277343 l -0.1875,-0.07422 -0.203125,0.01758 c -1.711188,0.157795 -2.57911,0.184399 -3.357422,-0.02344 -0.778312,-0.207837 -1.612007,-0.695668 -3.167969,-1.71875 l -0.07422,-0.04883 -0.08008,-0.03125 c -0.574712,-0.229091 -1.155199,-0.196958 -1.662109,-0.002 z m 1.025391,1.59375 c 1.463918,0.959358 2.448003,1.580142 3.515625,1.865234 1.024226,0.273505 2.129694,0.199979 3.640625,0.06836 0.325582,0.149116 0.498412,0.297577 0.541015,0.384765 0.04827,0.09879 0.06131,0.214689 -0.0059,0.429688 -0.134331,0.429998 -0.696761,1.073973 -1.037109,1.302734 -0.831357,0.558786 -2.59214,0.321837 -4.267579,-0.412109 -0.837719,-0.366973 -1.633826,-0.827816 -2.246093,-1.255859 -0.612268,-0.428044 -1.059084,-0.897653 -1.091797,-0.951172 -0.151136,-0.24726 -0.113066,-0.74318 0.125,-1.095703 0.237584,-0.35181 0.438371,-0.489642 0.826172,-0.335938 z"
           id="path236" />
        <path
           style="color:#000000;fill:#ffffff;fill-rule:evenodd;stroke-width:1.7145;-inkscape-stroke:none;paint-order:stroke fill markers"
           d="m 20.893475,13.987404 c 3.131449,2.059002 3.623578,2.199213 7.07629,1.880826 2.298431,0.897298 0.757642,2.991669 -0.262227,3.677161 -2.565742,1.72453 -8.071614,-1.666357 -8.815002,-2.882547 -0.743388,-1.21619 0.462154,-3.288824 2.000929,-2.67544 z"
           id="path238" />
      </g>
      <g
         id="rect1558"
         inkscape:transform-center-x="2.7535049"
         inkscape:transform-center-y="-0.056562396"
         transform="matrix(0.99454298,0.1043277,-0.01688781,-0.99985739,0,0)">
        <path
           style="color:#000000;fill:#170b28;fill-rule:evenodd;-inkscape-stroke:none;paint-order:stroke fill markers"
           d="m 20.998047,-28.654297 0.05469,0.002 c -1.64396,-0.102432 -3.003498,0.983887 -3.230468,2.390625 -0.113485,0.70337 0.08366,1.482562 0.601562,2.09961 0.5179,0.617047 1.317168,1.070815 2.375,1.322265 0.691247,0.164313 1.464006,0.142773 2.125,0.111328 0.660995,-0.03144 1.193359,-0.09375 1.193359,-0.09375 l -0.179687,0.002 c 0.808344,0.0734 1.573504,-0.284557 1.994141,-0.839844 0.420637,-0.555287 0.557737,-1.223732 0.537109,-1.876953 -0.02063,-0.653222 -0.203936,-1.311315 -0.570313,-1.882813 -0.366376,-0.571498 -0.954918,-1.06759 -1.716796,-1.21875 l -0.08203,-0.01563 z m -0.05273,1.71875 0.02539,0.002 h 0.02734 2.86914 c 0.226348,0.05164 0.415013,0.182833 0.582032,0.44336 0.172727,0.26943 0.287715,0.655922 0.298828,1.007812 0.01111,0.35189 -0.0849,0.647766 -0.1875,0.783203 -0.102596,0.135438 -0.151276,0.192892 -0.46875,0.164063 l -0.08984,-0.0078 -0.08984,0.01172 c 0,0 -0.47264,0.05564 -1.068359,0.08398 -0.595719,0.02834 -1.331714,0.0065 -1.646484,-0.06836 -0.795759,-0.189155 -1.235438,-0.490264 -1.455079,-0.751953 -0.21964,-0.261689 -0.258621,-0.485686 -0.220703,-0.720703 0.07584,-0.470034 0.571837,-1.000352 1.423828,-0.947266 z"
           id="path291" />
        <path
           style="color:#000000;fill:#ffffff;fill-rule:evenodd;stroke-width:1.72084;-inkscape-stroke:none;paint-order:stroke fill markers"
           d="m 20.998272,-27.793949 h 3.016439 c 1.997711,0.396355 2.251637,4.32086 0,4.116395 0,0 -2.01042,0.239135 -3.016439,0 -3.707186,-0.881212 -2.495954,-4.271914 0,-4.116395 z"
           id="path293" />
      </g>
    </g>
  </g>
</svg>
