<?xml version="1.0" encoding="UTF-8" standalone="no"?>
<!-- Created with Inkscape (http://www.inkscape.org/) -->

<svg
   width="32"
   height="32"
   viewBox="0 0 8.4666666 8.466667"
   version="1.1"
   id="svg291"
   xmlns="http://www.w3.org/2000/svg"
   xmlns:svg="http://www.w3.org/2000/svg">
  <defs
     id="defs288" />
  <g
     id="layer1">
    <path
       id="path951"
       style="color:#000000;fill:#000000;stroke:none;-inkscape-stroke:none;paint-order:stroke fill markers"
       d="m 8.2873784,-0.00579419 -0.3255994,0.00204 C 6.1541905,0.00460701 5.203001,-0.03713301 4.0269057,0.57469785 3.1809803,1.014767 3.1689626,1.8491932 2.0616121,2.6533698 1.6629693,2.9344851 1.4174183,3.2972562 0.50486919,3.3990169 v 1.5438838 c 0.0939059,0.017377 0.19306443,0.03505 0.29100446,0.052911 0.10758632,0.019617 0.21264925,0.039005 0.29507445,0.058337 0.082425,0.019331 0.1483626,0.043121 0.1539814,0.046127 0.2618016,0.1400892 -0.1984985,0.080677 -0.1339374,0.2213587 0.287263,2.6551136 1.6727472,3.1594337 5.4588421,3.1426124 0.1657415,-0.00154 0.3314829,-0.00316 0.4972241,-0.00475 V 7.1157207 H 6.5671229 C 2.4412177,6.9714356 2.8769626,6.1226258 2.5066332,4.9844613 l 5.9671979,0 V 3.4788407 l -5.0188957,0 C 4.5199165,2.6558886 4.2837533,2.1987839 4.926243,1.8474091 5.8268704,1.3548599 6.2905955,1.3525124 7.9644923,1.344765 h 0.4972174 v -1.35055919 z" />
    <path
       id="path957"
       style="color:#000000;fill:#ffffff;stroke:none;-inkscape-stroke:none;paint-order:stroke fill markers"
       d="M 8.1361103,0.31980522 7.961779,0.32184022 C 6.1925021,0.33003022 5.3237228,0.26707442 4.1985236,0.84874439 3.3566817,1.2839332 3.3525151,2.1167049 2.2488316,2.9179193 1.7934547,3.2390428 1.4835833,3.6256113 0.50486919,3.7313997 v 0.8770832 c 0.12221715,0.023901 0.2558532,0.04804 0.38597107,0.073938 0.22799584,0.045377 0.45420534,0.107904 0.49721734,0.1309187 0.3057949,0.1636297 0.1272384,0.2499306 0.140124,0.4877489 -0.04264,2.3110298 1.5098798,2.8558714 5.0314814,2.8375573 H 6.7339926 V 7.4413201 H 6.5596613 C 1.6879931,7.2405107 2.6170957,5.8034241 2.0935229,4.6588619 l 6.0547088,0 V 3.8044401 l -5.8702024,0 C 2.4388981,3.7219654 2.6441638,3.6646446 2.7806733,3.5683806 4.1592091,2.7634864 3.9251959,2.0060557 4.754625,1.5733629 5.7172916,1.0711633 6.253375,1.0270852 7.9644923,1.0191656 h 0.171618 z" />
    <g
       id="g966"
       transform="matrix(1.2884286,0,0,1.2884286,0.01471305,-1.2456788)">
      <path
         style="color:#000000;fill:#000000;stroke-width:0.592733;stroke-dasharray:none;paint-order:stroke fill markers"
         d="m 1.2183305,3.0061665 c -0.66965323,0 -1.218247563262,0.5533144 -1.218247563262,1.2237474 0,0.670433 0.548594333262,1.2237474 1.218247563262,1.2237474 0.6696531,0 1.2154973,-0.5533144 1.2154973,-1.2237474 0,-0.670433 -0.5458442,-1.2237474 -1.2154973,-1.2237474 z m 0,0.6984984 c 0.2901875,0 0.5197488,0.2286884 0.5197488,0.525249 0,0.2965605 -0.2295613,0.5279989 -0.5197488,0.5279989 -0.29018763,0 -0.522499,-0.2314384 -0.522499,-0.5279989 0,-0.2965606 0.23231137,-0.525249 0.522499,-0.525249 z"
         id="path276" />
      <path
         style="color:#000000;fill:#ffffff;stroke:none;stroke-width:0.762383;-inkscape-stroke:none;paint-order:stroke fill markers"
         d="M 2.168013,4.2305242 A 0.95055915,0.95764289 0 0 1 1.217454,5.188167 0.95055915,0.95764289 0 0 1 0.26689479,4.2305242 0.95055915,0.95764289 0 0 1 1.217454,3.2728813 0.95055915,0.95764289 0 0 1 2.168013,4.2305242 Z"
         id="path278" />
    </g>
  </g>
</svg>
