<svg height="32" viewBox="0 0 8.4666666 8.466667" width="32" xmlns="http://www.w3.org/2000/svg"><path d="m8.2873784-.00579419-.3255994.00204c-1.8075885.0083612-2.758778-.03337882-3.9348733.57845204-.8459254.44006915-.8579431 1.27449535-1.9652936 2.07867195-.3986428.2811153-.6441938.6438864-1.55674291.7456471v1.5438838c.0939059.017377.19306443.03505.29100446.052911.10758632.019617.21264925.039005.29507445.058337.082425.019331.1483626.043121.1539814.046127.2618016.1400892-.1984985.080677-.1339374.2213587.287263 2.6551136 1.6727472 3.1594337 5.4588421 3.1426124.1657415-.00154.3314829-.00316.4972241-.00475v-1.3437761h-.4999354c-4.1259052-.1442851-3.6901603-.9930949-4.0604897-2.1312594h5.9671979v-1.5056206h-5.0188957c1.0649811-.8229521.8288179-1.2800568 1.4713076-1.6314316.9006274-.4925492 1.3643525-.4948967 3.0382493-.5026441h.4972174v-1.35055919z"/><path d="m8.1361103.31980522-.1743313.002035c-1.7692769.00819-2.6380562-.0547658-3.7632554.52690417-.8418419.43518881-.8460085 1.26796051-1.949692 2.06917491-.4553769.3211235-.7652483.707692-1.74396241.8134804v.8770832c.12221715.023901.2558532.04804.38597107.073938.22799584.045377.45420534.107904.49721734.1309187.3057949.1636297.1272384.2499306.140124.4877489-.04264 2.3110298 1.5098798 2.8558714 5.0314814 2.8375573h.1743296v-.6973257h-.1743313c-4.8716682-.2008094-3.9425656-1.637896-4.4661384-2.7824582h6.0547088v-.8544218h-5.8702024c.1608688-.0824747.3661345-.1397955.502644-.2360595 1.3785358-.8048942 1.1445226-1.5623249 1.9739517-1.9950177.9626666-.5021996 1.49875-.5462777 3.2098673-.5541973h.171618z" fill="#fff"/><g transform="matrix(1.2884286 0 0 1.2884286 .014713 -1.245679)"><path d="m1.2183305 3.0061665c-.66965323 0-1.21824756.5533144-1.21824756 1.2237474s.54859433 1.2237474 1.21824756 1.2237474c.6696531 0 1.2154973-.5533144 1.2154973-1.2237474s-.5458442-1.2237474-1.2154973-1.2237474zm0 .6984984c.2901875 0 .5197488.2286884.5197488.525249 0 .2965605-.2295613.5279989-.5197488.5279989-.29018763 0-.522499-.2314384-.522499-.5279989 0-.2965606.23231137-.525249.522499-.525249z" stroke-width=".592733"/><path d="m2.168013 4.2305242a.95055915.95764289 0 0 1 -.950559.9576428.95055915.95764289 0 0 1 -.95055921-.9576428.95055915.95764289 0 0 1 .95055921-.9576429.95055915.95764289 0 0 1 .950559.9576429z" fill="#fff"/></g></svg>